<mxfile host="app.diagrams.net" modified="2022-09-23T01:48:01.398Z" agent="5.0 (Macintosh; Intel Mac OS X 10_15_7) AppleWebKit/537.36 (KHTML, like Gecko) Chrome/105.0.0.0 Safari/537.36" etag="GArDjJ089FmdvimU7SDf" version="20.3.6" type="github">
  <diagram name="Page-1" id="c7558073-3199-34d8-9f00-42111426c3f3">
    <mxGraphModel dx="1554" dy="841" grid="1" gridSize="10" guides="1" tooltips="1" connect="1" arrows="1" fold="1" page="1" pageScale="1" pageWidth="826" pageHeight="1169" background="none" math="0" shadow="0">
      <root>
        <mxCell id="0" />
        <mxCell id="1" parent="0" />
        <mxCell id="FiJYtW0xMJG0avVtsO6o-96" value="" style="ellipse;whiteSpace=wrap;html=1;" vertex="1" parent="1">
          <mxGeometry x="200" y="210" width="120" height="80" as="geometry" />
        </mxCell>
      </root>
    </mxGraphModel>
  </diagram>
</mxfile>
